<svg xmlns="http://www.w3.org/2000/svg" viewBox="0 0 340.64 297.11"><title>daikoku</title><g id="26dc9029-dd7a-4b41-82da-27d0cba41a94" data-name="Calque 2"><g id="a9d2e4ac-fbd0-46a5-be0e-969401ebc884" data-name="Calque 1"><path d="M232,295.19a1.58,1.58,0,0,1-.38-.05,1.49,1.49,0,0,1-1.08-1.81c.25-1,.95-4.46-.49-6.63a4.51,4.51,0,0,0-3.28-1.87,8.11,8.11,0,0,0-1.33-.11,2.91,2.91,0,0,0-2.44.9c-.91,1.14-.67,3.27-.5,4a1.49,1.49,0,0,1-.49,1.48,1.5,1.5,0,0,1-1.54.25l-7.49-3.05-12.46.49a1.5,1.5,0,0,1-1.49-1.68,21.26,21.26,0,0,1,2.83-7.57c.41-.77.8-1.51,1.15-2.25a258.13,258.13,0,0,1-33.47,2.16,256.27,256.27,0,0,1-33.57-2.18c.09.42.17.85.27,1.27a4.68,4.68,0,0,1-.56,4,3.61,3.61,0,0,1-2.15,1.28,8.86,8.86,0,0,0,1,5.49,1.5,1.5,0,0,1-.43,1.78,1.52,1.52,0,0,1-.94.33,1.5,1.5,0,0,1-.9-.3l-26.91-20,1.83,12.28s0,.08,0,.12a7.65,7.65,0,0,1-1.81,5.18,8.85,8.85,0,0,1-6.44,2.71l-1.32,0c-3.09,0-5-.65-6-2a3,3,0,0,1-.53-2.09L87.37,265c-21.17-8.4-36.91-19.7-45.62-32.73H14A12.53,12.53,0,0,1,1.5,219.79V170.71A12.53,12.53,0,0,1,14,158.19H30.83a50,50,0,0,1-7-19.58c-2.64-18.56,4.61-35.76,17.64-41.91a1.15,1.15,0,0,1,.25-.12,24.24,24.24,0,0,1,4.44-1.52,136.46,136.46,0,0,1,13.45-3.38,1.8,1.8,0,0,1,.34-.26,17.86,17.86,0,0,0-.29-5.74c-.71-4.31-1.9-8.67-5.78-11.43-2.25-1.25-4-4.33-4.51-8.07-.74-5.23,1.19-9.71,4.42-10.28-.06-.3-.11-.6-.16-.9a13.59,13.59,0,0,1,.58-6.57c.82-2.16,2.23-3.48,4-3.73a4.9,4.9,0,0,1,.54,0,4.44,4.44,0,0,1,.62.05,4.31,4.31,0,0,1,1-.32,38.23,38.23,0,0,1,6.82-1,4.36,4.36,0,0,1,.51,0c3.16,0,6,3.64,6.68,8.66,0,.3.07.61.1.91h0a3.6,3.6,0,0,1,.56,0c3.16,0,6,3.64,6.68,8.66.54,3.75-.26,7.18-2.08,9-3,3.73-2.89,8.25-2.37,12.59a18,18,0,0,0,1.33,5.6,1.48,1.48,0,0,1,.27.1c4-.36,7.65-.54,10.91-.54,2,0,3.81.06,5.4.2l.33,0a78.61,78.61,0,0,1,6.5-42.31C121.78,3,161.61,1.75,166.09,1.75h0c2.09-.17,4.19-.25,6.25-.25,37.64,0,57.47,27.69,61.07,33.25,4.77,7.37,12.68,22.11,12,37.9a108.9,108.9,0,0,1-2.81,21.91,22.73,22.73,0,0,1,7.23-1,55.55,55.55,0,0,1,15.79,2.74c15.95,4.84,25.9,17.49,28.69,24.8.95,2.47,1.06,4.32.35,5.49a9.09,9.09,0,0,1-1.83,2.07,20.1,20.1,0,0,1,2.18,12.48c-.27,1.83-.51,3.67-.76,5.51l-.17,1.25a98.74,98.74,0,0,1,5.34,10.32H326.6a12.56,12.56,0,0,1,12.54,12.54v49.06a12.53,12.53,0,0,1-12.52,12.52H309a20.48,20.48,0,0,1-8.7,1.52c-1,0-2.09,0-3.21-.11l-.81,0c-7.75,10.83-20.65,20.58-37.39,28.24l-2,2.21a1.5,1.5,0,0,1-2,.22,1.53,1.53,0,0,1-.45-.5c-4.56,1.92-9.37,3.68-14.35,5.27l-6.75,24.94A1.49,1.49,0,0,1,232,295.19Z" fill="#fff"/><path d="M172.37,3C210.48,3,230,32.16,232.18,35.56c2.59,4,12.5,19.81,11.79,37-.49,11.78-2.07,19.14-3,22.62l-.09.67a2.91,2.91,0,0,1-.42,1c-.08.26-.15.46-.19.56.79-.65,3.52-2.44,9.65-2.44a53.53,53.53,0,0,1,15.36,2.68c19.81,6,30.2,24.77,28.19,28.07a9.65,9.65,0,0,1-2.54,2.53,6,6,0,0,1,.53.78,18.4,18.4,0,0,1,2.15,11.8c-.35,2.43-.67,4.87-1,7.3a94.52,94.52,0,0,1,5.92,11.5h28.1a11.08,11.08,0,0,1,11,11v49.06a11.05,11.05,0,0,1-11,11h-18c-2.12,1.13-5.15,1.52-8.34,1.52-1,0-2.07,0-3.11-.11-.57,0-1.12,0-1.66-.06-7.69,11.11-20.74,20.9-37.55,28.55l-2.17,2.44s.42-.72,1.08-1.95a167.48,167.48,0,0,1-18,6.76l-7,25.73c.47-1.87,1.85-9.27-5-10.34a10,10,0,0,0-1.56-.13c-6,0-4.4,6.74-4.4,6.74l-7.8-3.17-12.72.5c.42-3.6,2.51-6.47,4-9.63a5.81,5.81,0,0,0,.44-2.15,254,254,0,0,1-35.4,2.44A253.64,253.64,0,0,1,134,275.5c.24,1.11.47,2.24.71,3.35.51,2.35-.22,3.54-2.42,3.62-.92,2.59-.3,5,.77,7.46l-27.31-20.29-2.34-.67,2.18,14.67s.43,5.91-6.83,6.29l-1.24,0c-5.9,0-5-2.55-5-2.55L88.71,264c-21.25-8.31-37.54-19.83-46.15-33.15H14a11.05,11.05,0,0,1-11-11V170.71a11.05,11.05,0,0,1,11-11H33.66a47.75,47.75,0,0,1-8.37-21.29C22.7,120.2,30.05,103.64,42.23,98h0l.09,0a22,22,0,0,1,4.21-1.44A136,136,0,0,1,60.84,93c-.21-.14-.27-.23-.09-.26,1-.13,1-3.32.37-7.26S59.29,76.23,54.68,73h0c-1.8-.94-3.37-3.65-3.85-7-.62-4.41.85-8.26,3.29-8.61l.33,0a2.74,2.74,0,0,1,.84.14,3.18,3.18,0,0,1,.4-.23,13.84,13.84,0,0,1-.59-2.46c-.63-4.4.84-8.26,3.28-8.6l.33,0a2.74,2.74,0,0,1,.84.14,2.83,2.83,0,0,1,1.1-.44,37.18,37.18,0,0,1,6.69-1l.36,0c2.32,0,4.6,3.18,5.19,7.37A13.72,13.72,0,0,1,73,55.44a2.92,2.92,0,0,1,1.75-1l.35,0c2.32,0,4.6,3.18,5.2,7.38.48,3.36-.27,6.4-1.74,7.81h0C75,74,75.35,79.39,75.82,83.35s1.4,6.87,2.32,6.87h.11c.11,0,.09.08,0,.21,4.18-.39,8.13-.6,11.58-.6,1.93,0,3.7.06,5.27.2l.3,0c.63.06,1.26.15,1.89.26a77.85,77.85,0,0,1,6.13-43.44C120.63,9.15,153.88,3.25,166.09,3.25l-.18,0Q169.23,3,172.37,3m0-3c-2.07,0-4.19.08-6.3.25a70.17,70.17,0,0,0-30.82,8c-15.2,7.85-26.83,20.43-34.57,37.39a79.92,79.92,0,0,0-6.81,41.29c-1.25-.07-2.61-.1-4.05-.1-3.06,0-6.48.15-10.16.46A23,23,0,0,1,78.8,83c-.48-4-.56-8.13,2-11.42,2.1-2.18,3-6,2.44-10.21-.77-5.41-3.84-9.43-7.45-9.9-.91-5.57-4.28-9.57-8.1-9.57a4.63,4.63,0,0,0-.65,0,38.22,38.22,0,0,0-7,1,4.8,4.8,0,0,0-1,.26l-.4,0a4.74,4.74,0,0,0-.75.06c-4.14.58-6.63,5.57-5.88,11.66-3.21,1.53-5,6.12-4.22,11.51.6,4.16,2.57,7.62,5.19,9.12C56.44,78,57.51,82,58.16,85.93a23,23,0,0,1,.38,4.44c-4.67,1-9,2-12.8,3.25a24.92,24.92,0,0,0-4.55,1.55h0a3,3,0,0,0-.44.21c-13.58,6.45-21.15,24.27-18.42,43.44a52,52,0,0,0,5.88,17.87H14a14,14,0,0,0-14,14v49.08a14,14,0,0,0,14,14H41c8.86,12.84,24.38,24,45.07,32.31l3.47,21.3a4.49,4.49,0,0,0,.82,2.92c1.25,1.76,3.61,2.62,7.22,2.62.44,0,.91,0,1.39,0a10.19,10.19,0,0,0,7.49-3.21,9.11,9.11,0,0,0,2.19-6.28l0-.23-1.29-8.7,24,17.84a3,3,0,0,0,1.79.59,3,3,0,0,0,1.87-.66,3,3,0,0,0,.87-3.56,9,9,0,0,1-1-3.75,5,5,0,0,0,2-1.49,5.7,5.7,0,0,0,1-4.45,257.22,257.22,0,0,0,31.7,1.93,259.43,259.43,0,0,0,30.84-1.82,21.89,21.89,0,0,0-2.84,7.81,3,3,0,0,0,3,3.35h.12l10.43-.4,1.64-.07,7.2,2.93A3,3,0,0,0,221,293a3,3,0,0,0,2.92-3.7,4.16,4.16,0,0,1,.22-2.71c.23-.29.89-.33,1.26-.33a7.5,7.5,0,0,1,1.1.09,3,3,0,0,1,2.26,1.22c.88,1.32.7,3.75.28,5.44a3,3,0,0,0,2.16,3.62,2.84,2.84,0,0,0,.76.1,3,3,0,0,0,2.89-2.22l6.53-24.15c4.41-1.43,8.69-3,12.77-4.67a3,3,0,0,0,3.92-.51l1.74-2c16.51-7.6,29.33-17.23,37.23-28h0c1.13.08,2.21.11,3.23.11a22.26,22.26,0,0,0,9-1.52h17.29a14,14,0,0,0,14-14V170.73a14.06,14.06,0,0,0-14-14H300.44a98.1,98.1,0,0,0-4.74-9.14l.09-.68q.38-2.77.76-5.55A21.58,21.58,0,0,0,294.73,129a9,9,0,0,0,1.27-1.61c1-1.61.91-3.84-.22-6.81-2.9-7.59-13.19-20.69-29.66-25.69A57.21,57.21,0,0,0,249.89,92a27.61,27.61,0,0,0-5.21.46A120.54,120.54,0,0,0,247,72.71c.66-16.21-7.41-31.25-12.27-38.78C231,28.27,210.79,0,172.37,0Z" fill="#fff"/><path d="M231.83,295.62a1.52,1.52,0,0,1-.42-.06,1.51,1.51,0,0,1-1-1.83l.12-.43a1.49,1.49,0,0,1,1.44-1.11,1.65,1.65,0,0,1,.38.05,1.49,1.49,0,0,1,1.08,1.81c-.08.32-.14.51-.14.51A1.5,1.5,0,0,1,231.83,295.62Z" fill="#fff"/><path d="M231.94,293.69h0m0,0c-.06.27-.11.43-.11.43l.11-.43m0-3a2.7,2.7,0,0,0-.63.07,2.9,2.9,0,0,0-1.18.54A3,3,0,0,0,229,293l-.1.37A3,3,0,0,0,231,297a2.71,2.71,0,0,0,.84.12A3,3,0,0,0,234.7,295s.05-.16.12-.44a3.16,3.16,0,0,0,.13-.87,3,3,0,0,0-2.78-3Zm0,6h0Z" fill="#fff"/><path d="M61.12,95.3,92.53,288.13s-1,2.9,6.24,2.52,6.83-6.29,6.83-6.29L78.2,99.86Z" fill="#343736"/><path d="M305.29,185.57c-3.77-13.2-14.86-37.67-14.86-37.67s1.42-13.74,0-20.11S285,113.17,276,105.62s-22.64-9.2-26.65-9.43-9.2,2.12-9.2,2.12,3.07-7.78,3.78-25-9.2-33-11.79-37S202.93-7.59,150,6.85s-42.63,92.4-47.58,95.47a26,26,0,0,0-10.14,11.79,16.6,16.6,0,0,1-.34,2.11c-3.79-.49-8.17-.83-12.81-1,.06-.08,0-.6-.08-.6-1,0-1.48-4.09-1.4-8.08s-12.64-4-12.55,0-.43,7.13-1.39,7.13l-.09,0h0a.08.08,0,0,0,0,0h0a.2.2,0,0,0,0,.08h0s.07.54.11.58c-5.13.27-10.15.29-14.66,1a21.49,21.49,0,0,0-4.37.83l-.1,0h0c-12.85,3.87,6.67,19.24,6.67,37.62s-19.52,33.76-6.67,37.63v0l.39.09c.66.18,1.33.33,2,.46-.57,3.67-1.31,8.44-1.92,12.43-1.18,7.71,0,11.48,0,11.48l-2.83,9.36s15.51,8.49,12.91,15.33,206.52,16.41,206.52,16.41L289,231.87s19.84,5.35,21.49-7.85S309.06,198.78,305.29,185.57Z" fill="#fff"/><path d="M200.47,288c.42-3.6,2.51-6.47,4-9.63.76-1.67.31-3.89.42-5.86a3.92,3.92,0,0,1,.2-1.71c2-3.12,2.1-5.58.13-8.07-.33-.42-1.23-.39-1.73-.54-.25-1.45-.5-2.94-.76-4.43a18.46,18.46,0,0,1-.36-2.08c-.2-3.86-.1-7.77-.63-11.59-.32-2.3-1.05-5-2.59-6.54-1.86-1.86-4.76-2.69-7.22-3.95a3.16,3.16,0,0,1-1.48-1.15c2.18.8,4.35,1.58,6.53,2.39.36.13.74.53,1,.47,1.19-.22,2.67-.24,3.46-1,1.27-1.18-.36-2-1-2.85a28.63,28.63,0,0,0-2.11-2.18c4,1.17,4.31-1.52,5.77-3.57,1.84-2.57,3.06-5.24,2.47-8a7.69,7.69,0,0,0-4-4.85c-6.27-2.47-12.77-4.33-19.18-6.4a3.7,3.7,0,0,1-1.75-.87c1.49.16,3,.28,4.46.5,3.44.51,6.6,2.13,10.33,1.74,2-.21,4.17,1.5,6.3,2.23s4.58,1.14,6.65-.43a4,4,0,0,0,1.24-2.19c.49-2-.63-4.43,1.4-6.21a2,2,0,0,0,.32-1.79c-1.43-4.19.41-8.23.59-12.34.05-1.24,1.62-2.35,2-3.66a38.46,38.46,0,0,0,1.75-7.38c1.07-9.31,3.41-18.33,5.89-27.34,1.16-4.2,1.63-8.6,2.43-12.91.33-1.74.71-3.48,1.15-5.69-.53.55-.83.71-.91,1-1.62,4.73-5.93,7.41-8.64,11.31a6,6,0,0,1-1.71,1.2c.72-1.18,1.34-2.43,2.17-3.53,3-4.05,6.91-7.51,8.15-12.76.77-3.22-.78-6-4-6.75-3.75-.8-8.3,2.85-8.29,7,0,1.92-1.11,2.61-2.34,3.41-1.6,1-3.24,2-4.85,3-2.16,1.35-4.29,2.72-6.46,4a22,22,0,0,0-3,1.68c-1.71,1.47-3.23,3.16-4.91,4.67s-3.3,2.78-5.1,4.28a9.93,9.93,0,0,0-2.79.48,3.21,3.21,0,0,0-1.71,1.95,2.7,2.7,0,0,0,.91,2.36c1.63.83,3.54,1.9,5.21,1.71,3.93-.45,8.05-1,11.6-2.58,4.59-2.07,8.69-5.22,13-7.87a23.88,23.88,0,0,1,2.46-1.14c-5.89,4.08-11,9.36-17.81,12-1.59.62-3.26,1-4.85,1.66-2.32.88-4.6,1.85-6.25,2.52l-5.11-1.1-2.15,40.17-.39,0a15.79,15.79,0,0,1-.21-2.16c.44-9.72.92-19.44,1.36-29.17.12-2.66.16-5.33.18-8,0-3.81-2.67-5.89-6.35-4.72-3,1-5.94,2.36-9,3.26a8.62,8.62,0,0,1-4.69.17c-3.71-1.11-4.16-1-4.91,2.75a24.85,24.85,0,0,0-2.48-4.33,3.8,3.8,0,0,0-3-1.13c-7.14,1.37-13.69-.33-20-3.42-1.48-.72-3.09-1.15-4.59-1.83a3.4,3.4,0,0,1-2.31-4.14c1.27.67,2.32,1.2,3.33,1.78,5.84,3.35,11.81,6.27,18.79,6.14A8.84,8.84,0,0,0,152,150.6a15.31,15.31,0,0,1-2.63-.77c-1.57-.79-3.11-1.68-4.61-2.61-.59-.37-1.07-1.35-1.57-1.34-4.12.1-7.22-2.94-11.13-3.45a67.61,67.61,0,0,1-9-1.65,5.59,5.59,0,0,1-3-2.58c-2.93-5.69-6.14-11.13-11-15.42-3.92-3.44-8.31-4.06-13.31-5.76-3.3-1.12-4.74,1.2-3.73-2.21a21.73,21.73,0,0,1,6.24-9.51c1.69-1.31,3.41-3,2.89-4.94a75,75,0,0,1,.55-42.1c5-16.57,14-30.65,28.2-41,.92-.67,2.26-.74,3.36-1.2a5.92,5.92,0,0,0,2.34-1.37c1.87-2.31,4.44-2.15,7-2.35a11.89,11.89,0,0,0,3.09-.73c3.3-1.22,6.58-2.51,9.87-3.76.18-.06.44.08,1.52.28a22.17,22.17,0,0,1-3,2.39c-2.12,1.09-4.36,2-6.51,3a1.53,1.53,0,0,0-.75,1.1c-.09,2.33-.07,4.67-.1,7,0,.6,0,1.19-.07,1.78l-1.77-.31c.41,1.21.41,1.21,4.13,1.33l-7.08,2.37,0,.24,6.17-.24.51.36c-2.31,1.56-2.53,3.31-1.43,5.57A3.35,3.35,0,0,0,151,34.84a117.38,117.38,0,0,1,31.44.81c12.51,2.06,24,6.53,32.6,16.39a36.88,36.88,0,0,1,8,15.3,20.25,20.25,0,0,1,.36,2.46l-.61.19a41.15,41.15,0,0,1-1.7-4.56,9.19,9.19,0,0,0-3.67-5.7c-.72-.51-.84-1.86-1.23-2.83-.11-.26-.12-.61-.31-.79-3.76-3.63-7.26-7.63-11.39-10.79-7.86-6-17.17-8.08-26.88-9a105,105,0,0,0-27.21,1,12.51,12.51,0,0,0-1.83.44,4.89,4.89,0,0,0-1,.63c1.51,1.28,1.15,2.25-.12,3.55-1.92,2-1.13,4.23,1.54,4.74s5.45.76,8.17,1.13c.74.1,1.47.26,2.21.39l-.08.72c-2.57-.31-5.17-.46-7.69-1a38.69,38.69,0,0,0-17,.68,8.39,8.39,0,0,0-3.24,1.78,1.6,1.6,0,0,0-.3,2.59c.72.89.46,2.56.68,4.18L133.44,56l1.1,1.28,1.27-3c.86,0,2,2,2.31-.38,1.68,1.65,12.76,1.32,14.56-.21,3.27,2.05,3.58,2.05,5.25.18a47.14,47.14,0,0,0,3.84,4.61,6,6,0,0,0,3.11,1.22c1.52.23,3.25.59,4.57.07s2.38-2,3.26-3.2a24.91,24.91,0,0,0,1.93-4l.67,1a28,28,0,0,1,4.2.08c3.22.54,6.56.85,9.56,2a87,87,0,0,1,11.45,5.77c.8.45,1.16,1.85,1.51,2.88.72,2.11,1.23,4.28,1.95,6.38.45,1.34,1.12,2.61,1.79,4.14-1.72,1.25-2.93,0-4.33-1.23-3.52-3.09-7-6.22-10.77-9-2.51-1.89-5.49-2.06-8.75-.59l1.33.78-1.12,1.55c8.19.23,12.72,7.2,19.72,9.31l-.21.56-9.26-2.91c1.06,3.23,4.14,1.7,6.42,3.22-4.79-.51-9-.7-13,2.45-.84-.13-2.26-.41-3.69-.58-3.81-.45-7.17-1.39-10-4.53s-8.5-4.38-11,.2a4.57,4.57,0,0,0-.69,1.71c-.29,3.37-.1,6.62,1.68,9.72,1.68,2.92,4.75,3.08,7.31,4.23A43.61,43.61,0,0,0,176,91.89a2.27,2.27,0,0,0,1.94-1A5.88,5.88,0,0,0,175.15,84c-.77-.46-1.59-.87-2.39-1.31l.38-.8a40.53,40.53,0,0,1,5.76,2.95c1.64,1.17,2.85,2.91,4.32,4.32,2.05,2,4.15,3.4,7.35,3.42a25.44,25.44,0,0,1,8.39,2c2.21.81,2.88,3.42,2,6.33-.76,2.55-1.81,5-2.45,7.59s-.85,5-1.27,7.58a10.65,10.65,0,0,1-4.16-8.13c-.09-2.51-.79-4.13-3.54-4.68-1.16-.23-2-1.85-3.2-2.08-3.25-.64-4.84-3-6.58-5.38-.86-1.16-1.78-1.92-3.35-1a54.91,54.91,0,0,1-6,3,24,24,0,0,1-4.1.9c-.45,2.65,1.08,4.87,4.38,5,3.56.1,7.14-.23,10.71-.19,6.22.07,8.45,2.75,7.73,9.06-.37,3.19,3,8.23,6,8.85a5.65,5.65,0,0,0,2.09,0,44.07,44.07,0,0,0,5.85-1.25c6.13-2,11.82-4.72,14.68-11.14.53-1.2,1.28-2.32,2.19-3.94,0,2.45,1.41,2.22,2.87,2.4a7.53,7.53,0,0,1,4.35,1.72c1.78,1.91,3.19,1.49,4.84.18.78-.62,1.5-1.3,2.31-2a3.28,3.28,0,0,1,.46,4.38c-.81,1.42-1.3,3-2,4.5a2.78,2.78,0,0,0,1.15,4l-3,4.89,2.93,1c-.93,2-1.9,3.8-2.65,5.7a31.36,31.36,0,0,0-1.59,5.33c-.11.53.61,1.23,1,2-.44,2.19-.89,4.64-1.42,7.08-.47,2.14-1.06,4.25-1.57,6.38a20.83,20.83,0,0,0-.54,2.92c-.29,3.72-1.16,7.56-.6,11.16.75,4.87-.79,9.27-1.57,13.79a75.4,75.4,0,0,0-.9,15.36,10.59,10.59,0,0,1-.43,2.29,5.83,5.83,0,0,1,.69,7.37c-.3.39-.28,1.12-.64,1.36a5.17,5.17,0,0,1-2.36,1c-.33,0-1.07-.9-1.07-1.4,0-2.43.2-4.86.29-7.29,0-.75,0-1.5-.07-2.24l-.92-.05c-.17,2.93-.68,5.89-.42,8.79.2,2.26-.59,2.94-2.51,3.29a19.05,19.05,0,0,0-5.25,1.74c4.25-.73,6.88,1.71,9.57,4.18.65.59,1.77.65,2.51,1.18a21.76,21.76,0,0,1,2.36,2.25,16.58,16.58,0,0,1-2.78,1.29,37.45,37.45,0,0,0-4.19.93c2.63,2.08,2.43,6,5.7,7.5.72.33.92,1.78,1.37,2.71-.89.41-1.77.84-2.67,1.22-.68.28-1.39.49-2.09.73a14,14,0,0,0,1,2.21c.79,1.14,1.69,2.2,2.58,3.28.49.6.93,1.43,1.57,1.67,2.38.9,2.92,2.62,3.11,5a9.23,9.23,0,0,0,1.92,4.65,14.45,14.45,0,0,0,9.29,5.29,14.29,14.29,0,0,0,4.92.12c1.17-.21,2.19-1.21,3.28-1.85a13.79,13.79,0,0,1,3-1.68c4.71-1.36,9.24-2.6,12.32-7.14,2.19-3.25,1.62-6.56,1.86-9.92a20.4,20.4,0,0,0-.07-2.21l.92-.14c.29,1.51.71,3,.85,4.52.9,9.78-26.49,27-29.32,26.38a25.74,25.74,0,0,1-4.06-1.24c-4-1.65-7.53-.35-10.55,2.05a6.64,6.64,0,0,0-2.3,6.55c.12.59.18,1.66,0,1.75-2.38.92-1.79,3.38-2.72,5-1.95,3.46-3.75,7-5.62,10.52ZM152.71,114.54c3.43,3.26,7.87,2.92,12.09,3.26s8.75.55,12.81.8c-3.33,3.08-3.34,2.91-6.14,3.19-5,.5-9.91,1.21-14.86,1.88-.44.06-.83.5-1.51.92l6.65,3.55,1.25-1.26,1.43,2.73.09-2.6.56-.18c.62,1.32,1.23,2.65,2,4.32l.61-5,.8,0a20.57,20.57,0,0,0,1,3.23,14.65,14.65,0,0,0,1.86,2.35l.48-.41-.15-3.75c.74,1.56,4.47-1.28,2.69,2.25,1,.38,2,.75,2.93,1.08.48.17,1.15.51,1.46.32,3.46-2.1,7.11-4,9.6-7.35a2,2,0,0,0,.24-1.8,35.68,35.68,0,0,0-5-5.51c-1.48-1.18-3.31-1.8-2-4.66C171.89,115.61,162.32,114.72,152.71,114.54ZM138.34,78.1a48.16,48.16,0,0,0-6.45,1.36c-.91.33-2.16,1.66-2.07,2.39a45.18,45.18,0,0,0,2,8.82c.25.74,2,1.37,3.08,1.36,3.1,0,6.24-.8,9.27-.46,1.89.22,2.49-.5,3.3-1.66,1.9-2.73,3.86-5.41,5.73-8.16a11.09,11.09,0,0,0,.92-2.24,18.58,18.58,0,0,0-2.34-.34c-1.58,0-3.19.15-4.76,0C144,78.89,140.94,78.44,138.34,78.1Zm5,39.14a7.35,7.35,0,0,0-2.09.11c-2.46,1-3,.68-3.9-1.8-1-2.86-1-6.29-4.06-8.15-.23-.14-.25-.61-.47-.8-.69-.6-1.43-1.13-2.15-1.7-.56,1.09-1.77,2.33-1.56,3.24a21.62,21.62,0,0,0,2.81,7.38c1.69,2.45,4.13,4.4,6.37,6.43.72.66,2.18,1.47,2.7,1.17a6.6,6.6,0,0,0,2.39-3C143.76,119.39,143.42,118.32,143.38,117.24Zm-.7-50.17a36.53,36.53,0,0,1,4,.92c1.32.45,2.53,1.2,3.83,1.7a1.46,1.46,0,0,0,1.33-.23,1.76,1.76,0,0,0,.15-1.54c-1-1.78-2.18-3.5-4.5-3.69C145.37,64.06,143.49,64.41,142.68,67.07Zm-37,46.07c-.32,2.48.82,2.81,2.37,2.84,1.82,0,2.84-.69,2.84-2.61,0-1.28-2.14-4-3.27-3.81C105.14,110,105.9,112.15,105.66,113.14Zm49-10.61.38.6,4.28-.16-2.24-2.88ZM154,84.82l.28,1.44c.95-.29,1.91-.56,2.83-.93.1,0,0-.66-.08-1Z" fill="#343736"/><path d="M60.76,236.93c-1.4-4.37-10.13-1.57-9.42-5.92,1.1-6.72-8.7-7.39-7.71-14.12,1.1-7.53,1.94-15.1,2.94-22.64.27-2.1.86-4.17,1-6.27a4.91,4.91,0,0,0-.93-3.34c-9.8-10.65-12.26-23.33-9.72-37A39,39,0,0,1,45,129.77c1.08-1.31,2.28-2.37,4.25-1.68.47.15,1.17-.38,1.87-.64.74,1.56.2,4,2.78,4.33l-1.75-2.89.56-.47,1.33.63L54,129c1.27,1.42,2.37,1.3,3.36-.32.56-.92,1.18-1.8,1.78-2.7l1.08.67-1.12,3.18c.84.36,1.79.85,2.79,1.19,2.54.89,2.89,1.74,2.09,4.34-1.18,3.89-2.71,7.76-3.21,11.76a41.33,41.33,0,0,0,4.47,24.17c3.93,7.8,9.83,13.32,18.11,15.76,10.84,3.21,20.36.29,28.13-7.85,2.07-2.18,3.53-5,5.2-7.5,1.12-1.71,2.12-3.48,3-5a4.28,4.28,0,0,1-1.29,5.24,4.62,4.62,0,0,0-1.13,2.11c-.72,2-1.42,4-2,6a5.48,5.48,0,0,0-.15,2.86c1.21,4,2.53,8,3.92,12a7.94,7.94,0,0,0,1.72,2.46c1,1,2.18,1.86,3,3,.68.92,2.54,1.72.57,3.42-.91.78.71,3.6,2.28,3.73a41.69,41.69,0,0,0,7.82,0c4.52-.48,9-1.25,13.58-1.57-5,1.3-10,2.59-14.95,3.91a40.22,40.22,0,0,0-5.42,1.61c-3.19,1.36-3,2.35-.78,4.25-1.87,1.48-2.78,3.12-1.44,5.61.9,1.68,1.14,3.72,1.67,5.6l.67-.13-.72,2.07,5.26-.2,1,1.34a25,25,0,0,1-2.68.91c-1.39.32-3.12.09-4.14.84-1.89,1.4-3.38,1-5.08,0a3,3,0,0,0-2.17-.42,25.76,25.76,0,0,0,3,3.05,3.57,3.57,0,0,0,2.29.12c1.75-.27,3.47-.65,5.2-1,2.22-.45,4.44-.84,6.64-1.38,1.67-.41,3.27-1.12,5-1.5a45.83,45.83,0,0,1,7.69-1.11c-2.93.82-5.92,1.49-8.78,2.52a37.16,37.16,0,0,0-6.93,3.34c-.71.44-1,1.9-1.1,2.93-.25,3.23-.3,6.46-.44,9.86l-3.28-.41,2.51,4.4-2.64,2.47.26.64c1,0,1.91-.11,2.87-.1,1.66,0,2.34.65,2.12,2.51a18.05,18.05,0,0,0,.55,4.44,11.07,11.07,0,0,1,.32,2.77c-.28,2.15.21,3.57,2.86,3.54-.38,1.47-.73,2.78-1.14,4.38-2.69-1.21-2.1-4-2.9-6s-1.12-4.06-2.14-6a4.53,4.53,0,0,0-.17,1.48q1.78,8.7,3.66,17.37c.51,2.35-.22,3.54-2.42,3.62-.92,2.59-.3,5.05.77,7.46M69.4,219.17l-1,1.07a25.72,25.72,0,0,0,2.49,2.41c.91.69,2.14,1,3,1.73,3.91,3.54,8.86,3.59,13.64,4.18a3,3,0,0,0,1.78-.49,4,4,0,0,1,4.63,0c1.38.91,2,.22,2.2-1.18.57-3.19-.66-4.92-3.84-5.35-.93-.12-1.84-.41-2.77-.56-3.09-.47-6.2-1.28-9.29-1.26-2.59,0-5.59-.6-7.75,1.84-.09.1-1.09-.53-1.58-.92A16.53,16.53,0,0,1,69.4,219.17Zm19-10.4c-3.12.31-6.24.62-9.36.95-1.47.16-2.83.52-3,2.39s1,2.79,2.58,3.09c5.24,1,10.48,1.88,15.74,2.72,1.8.29,2.65-.57,2.36-2.48A8.23,8.23,0,0,0,88.42,208.77Zm2.39,29,2.67-1.67c-.75-.86-1.49-1.73-2.27-2.57-.14-.15-.44-.13-.66-.22-7-2.87-14.34-.43-21.46-1.42-.37,0-1,.48-1.18.88a1.28,1.28,0,0,0,.47,1.18,13.4,13.4,0,0,0,4.09,1.66C78.48,236.3,84.33,238.72,90.81,237.79ZM77,259.48l.77-.29c.92.4,1.85.79,2.77,1.2,1.74.78,3.53,1.6,5.32.41a2.41,2.41,0,0,0,.43-1.93c-2.27-1.33-2.22-3.61-2.54-5.75a25.68,25.68,0,0,0-.63-4.14,2.37,2.37,0,0,0-1.83-1.27A3.42,3.42,0,0,0,78,251c-.2,1.62-.59,3.22-.79,4.85C77,257.05,77.08,258.27,77,259.48ZM83.63,203l0,.91c2.12.32,4.23.76,6.35.87.75,0,1.53-.74,2.3-1.15-.79-.7-1.62-2-2.36-2A41.45,41.45,0,0,0,83.63,203Zm21.46,2.59.84-.39c.14-2.18-.09-4.3-1.74-6-.4-.41-1.2-.42-1.81-.61-.14.57-.57,1.28-.37,1.67C102.94,202.07,104.05,203.79,105.09,205.55ZM60.17,137.08l.59-.59-3.94-3.94-.54.54Zm70.75,101.57c-1.29-1.94-2.16-1.91-3.79.14ZM47.38,135.59l.58.08.38-5-.63,0Z" fill="#343736"/><path d="M247.18,208.12l1.42.68a50.86,50.86,0,0,1-5.48-.28c-.55-.08-1.42-1-1.39-1.5a12.93,12.93,0,0,1,.88-4.36q8.1-18.93,16.38-37.81c1.16-2.65,2.57-5.19,3.93-7.75a7.38,7.38,0,0,1,1.37-1.43l.77.51a73,73,0,0,1-3.51,7.92c-1.08,1.85-1.14,3,1.15,4l1.78-2.69-.47.14a60.25,60.25,0,0,1,.38,6.42c-.09,2.07-1.05,4.15-.85,6.16a39.55,39.55,0,0,0,2,7.49c.11.33.69.51,1.06.76l1.19-2.14c1.34.78,1.72,1.86.58,3.12s-.41,2.24.62,2.2c2.23-.1,3,1.42,4.19,2.93l-1.42,1.09c.31.59.63,1.2,1.07,2.06l-5.75,4,.27.47c2-.79,3.93-1.56,5.87-2.37,3.7-1.56,5.71-1.11,8.55,2l-1.89,2.5c-.48-.57-.87-1-1.75-2-.18,1.35-.3,2.21-.5,3.77-2.12.27-4.68.75-7.26.9-3.67.22-7.35.13-11,.32-2.7.15-5.4-1.11-6-3.26C251.65,204.42,250.82,207.68,247.18,208.12Z" fill="#343736"/><path d="M220,33.93c1,.56,1.61.69,1.84,1.07,3.55,5.8,8.32,10.66,12,16.47s5.07,12.27,7.55,18.39c1.35,3.35,1.48,7.4,1.34,11.1-.21,5.23-1.16,10.43-1.86,15.64a6.94,6.94,0,0,1-.87,1.83,10.12,10.12,0,0,1-1.86-1.18c-3.71-3.67-4.68-8.27-4.78-13.33A88.44,88.44,0,0,0,232.08,72c-.44-2.84-1.7-3.83-4.6-4.06-1.7-.14-1.84-1.33-1.95-2.46-.32-3.27-.21-6.61-.81-9.82-1.21-6.39-2.78-12.71-4.2-19.06C220.37,35.94,220.27,35.26,220,33.93Z" fill="#343736"/><path d="M276.1,134.5l4.23-5a8.12,8.12,0,0,1,6.94-3c1.51.13,3.34,1.8,4.16,3.27a18.4,18.4,0,0,1,2.15,11.8c-.39,2.74-.75,5.49-1.13,8.23l-.71.17c-.59-.65-1.2-1.28-1.76-2-2.45-3-4.72-6.08-7.38-8.84C281,137.53,278.78,136.4,276.1,134.5Z" fill="#343736"/><path d="M227,77.65a39.43,39.43,0,0,1,1.73-5.08c.71-1.45,2.12-1.47,2.49.14a37.5,37.5,0,0,1,.66,7.35c0,.38-1.16,1.13-1.74,1.09s-1.07-.88-1.46-1.46a13.63,13.63,0,0,1-.93-2Z" fill="#343736"/><path d="M101.42,124.71c-7-3.23-14-2.22-21.11-.74C87.43,121.56,94.51,121,101.42,124.71Z" fill="#343736"/><path d="M152.71,23.94c-.27-.08-1.51-.13-1.63-.53-.78-2.48-2.37-4.85-1.87-7.58l.8-.24Z" fill="#343736"/><path d="M224,76.5c2.58,2.15,2.36,4.27-.55,6.31C222.43,80.6,222.89,78.66,224,76.5Z" fill="#343736"/><path d="M152.64,199.78c.66,5.34.65,5.24,6,4.68a30.09,30.09,0,0,1,7,.32c-3.82.15-7.64.26-11.45.46-1.33.07-1.9-.43-1.8-1.74S152.55,201,152.64,199.78Z" fill="#343736"/><path d="M65.8,129c-1.13-3.59-4.78-4-7.38-5.78C63.15,123.88,65.08,124.4,65.8,129Z" fill="#343736"/><path d="M216.58,68l4.21,3.45V72c-.7,0-1.64.17-2.06-.2a27.72,27.72,0,0,1-2.82-3.19Z" fill="#343736"/><path d="M157.48,16.87c.16,4.12,3,3.92,5.67,4.12l-.23.85c-1.5-.29-3.19-.26-4.44-1-.94-.55-1.32-2.05-1.95-3.13Z" fill="#343736"/><path d="M54,124.12l-5,2.07-.27-.62c1.29-1.6,2.83-2.63,5-2.26Z" fill="#343736"/><path d="M135.58,219.87l-4.29-3.39.65-.84,4.32,3.37Z" fill="#343736"/><path d="M149.53,42l9.17.88v.38l-9.22-.36Z" fill="#343736"/><path d="M141.41,225.8l-4.47-4.91.65-.57,4.36,5Z" fill="#343736"/><path d="M168.25,11.5c2.68,1.15,4.18,3.14,4.13,5.17C171.11,15.07,169.65,13.25,168.25,11.5Z" fill="#343736"/><path d="M54.08,129.05c0-.31-.14-.75,0-.9a15.61,15.61,0,0,1,1.63-1.25l.72,1A13.44,13.44,0,0,1,54.92,129c-.24.13-.6,0-.91,0Z" fill="#343736"/><path d="M216.79,72.88,220.6,76C218.44,76.1,217.73,74.61,216.79,72.88Z" fill="#343736"/><path d="M278,236.24l-3.4-5.23c2.15.08,3.26,1.68,3.4,5.24Z" fill="#343736"/><path d="M218.67,67.89l-3-4,.35-.28,3.49,3.61Z" fill="#343736"/><path d="M166.09,4c-12.21,0-45.46,5.9-62.68,43.63s3.07,72.17,3.07,72.17l37.73,25s13.21,6.37,13.44,2.6-5.66-11.8-11.55-13.68-24.06-2.6-29.25-15.81S111.43,96,113.79,90.76s-1.89-11.79-1.89-16,.24-19.81,3.54-29.95,7.67-20.67,15.85-27.59,13-8.7,19.94-10.56A138.39,138.39,0,0,1,166.09,4Z" fill="#343736"/><path d="M113.18,64.58s4.37-21.1,22.88-26.06a119.8,119.8,0,0,1,44.34-3.06,60.64,60.64,0,0,1,31,12.85c10,7.78,12.62,20.87,12.62,20.87V70.6s-3.42-12.27-11.55-19.22-19.34-12.86-30.66-14.15-27.95-1.18-35.85.82S129,42.3,123.56,48.9,112.48,69,112.48,69Z" fill="#343736"/><path d="M154.9,204.72l-3.3-.24,3.68-51c-2.17,1.86-5.28,3.13-10.31,3.78-8.63,1.13-23.68-7.61-24.32-8l1.67-2.85c.15.09,14.71,8.55,22.22,7.56,7.92-1,9.74-3.6,11.31-6.85l3.75-7.79Z" fill="#343736"/><path d="M187.72,157.43l-1.2,0c-9.28-.37-13.1-8.82-13.83-13.23l3.26-.55c.07.42,1.82,10.12,10.7,10.48,9.07.35,18.56-3.9,29-13,9.18-8,11.38-21.52,11.4-21.65l3.26.51c-.09.6-2.41,14.84-12.5,23.63C207.16,152.89,197.29,157.43,187.72,157.43Z" fill="#343736"/><rect x="154.55" y="177.77" width="50.42" height="3.3" transform="translate(-9.08 349.26) rotate(-86.91)" fill="#343736"/><path d="M98.64,228.83l-2.1-2.55a106,106,0,0,1,19.23-11.81c10.82-5.28,27.77-11.53,47.42-11.53H164c38.22.31,56.29,15.47,57,16.12l-2.15,2.5c-.18-.15-18-15-54.91-15.32S98.92,228.6,98.64,228.83Z" fill="#343736"/><path d="M143.57,28.81s24.82-6,43.06,0,28.58,17.12,32.84,23.81,4.56,18,4.56,18S220.14,49.45,197.88,42s-27.68-8.77-54.31-5.17S143.57,28.81,143.57,28.81Z" fill="#343736"/><path d="M112.48,131.74l-1.61,57.79s8,25.68,14.45,23.84,18.25-6.32,18.25-6.32-8.79,9.29-3.44,16,17,5.77,17,5.77L175.31,231s-19.09-.73-22.6,2.62,34.65,10,35.54,10.91,23.85,11.32,23.85,11.32V269l-103.86-1.78s2.38-69.93,0-74.85S112.48,131.74,112.48,131.74Z" fill="#343736"/><path d="M119.74,166.66s17.49-2.94,19.71,7.43,11.46,22,11.46,22l.69,8.37s-25.92,9.87-30,7.35-10.7-22.3-10.7-22.3L106,172.05Z" fill="#343736"/><path d="M87.91,182.62c7.57,2.42,14.67.47,21.71-1.94C102.64,184.05,95.46,185.59,87.91,182.62Z" fill="#343736"/><path d="M220.6,103.13s3.12,3.18,8.79,1.77S240,98.43,240,98.43s1.21,3.78,5.93,14.33-10.57,19.07-9,24.32-1.88,7.46-5.11,36.7c-2.34,21.2-2.44,31-2.44,31s-7.48,2.49-12.73,4.22-5.79,2.74-11.85,1.23-26.36,8.37-12.68-8.13,20.11-29.69,23.5-38.19S220,141.48,220,141.48s-19.48,13.85-13.49,8.53,19.36-12.81,10.26-17.16-6-9.26-1.16-13.41S220.6,103.13,220.6,103.13Z" fill="#343736"/><path d="M240,98.43s5.45-6,25.27,0,30.2,24.77,28.19,28.07-9.89,6.55-12.06,8.32,10.75,2.86,23,41.43,10.72,46.12,6.53,53.2-26,1.56-26,1.56l-29.13,32.86s12.07-20.94,10.28-29.57-16.41-22.53-16.41-22.53l3.77-1.58s9.67-4.4,16.93-5.31,30.9,8.49,30.9,8.49l-23.14-13.16a34.27,34.27,0,0,1,15.65-1.63c8.72,1.14,6.76-6.4-1.93-6.4s-27.09,6.4-27.09,6.4,8.28-15.75,15.46-14.38,14.26-4.79,8.6-4.77-27.08,10.1-27.08,10.1,13.73-7.51,12.86-13.28-8.35-13.55-10.13-10.86,6.43-6.74,7.84-11.44-10.57,5.34-10.57,5.34l8.06-20.85h0v-15S271,150.57,281.38,145s-9.47-34.33-3.37-28.49,7.58-2.34,0-7-16.07-9.57-24.56-9.46S240,98.43,240,98.43Z" fill="#343736"/><path d="M303.27,209.71c0,38.09-59.89,69-133.78,69s-133.77-30.87-133.77-69,106-48,91.1-74.33C117.77,119.38,303.27,171.62,303.27,209.71Z" fill="#343736"/><path d="M14,160.41H326.6a11,11,0,0,1,11,11v49.07a11,11,0,0,1-11,11H14a11,11,0,0,1-11-11V171.43A11,11,0,0,1,14,160.41Z" fill="#343736"/><path d="M80.28,62.51c-.63-4.41-3.11-7.7-5.55-7.35a2.92,2.92,0,0,0-1.75,1A13.72,13.72,0,0,0,72.89,53c-.62-4.4-3.11-7.69-5.55-7.35a37.18,37.18,0,0,0-6.69.95c-2.44.35-3.91,4.2-3.28,8.61a13.92,13.92,0,0,0,.73,2.91,2.82,2.82,0,0,0-1.71-.34c-2.44.35-3.91,4.2-3.29,8.61.48,3.37,2,6.08,3.85,7h0c4.61,3.24,5.8,8.51,6.44,12.45S64,93,63,93.1s4.64,2.2,4.64,2.2,1.9-1.41,3.08-2.41c1.4.64,3.62,1.45,3.62,1.45s4.79-3.54,3.84-3.4S76.3,88,75.82,84.07s-.8-9.35,2.72-13.75h0C80,68.91,80.76,65.87,80.28,62.51Z" fill="#343736"/><path d="M95.39,90.78l-.3,0c-6.32-.55-15.87,0-25.74,1.48,0,0,0,0-.11,0-.95.14-1.91-2.9-2.38-6.87s-.8-9.35,2.72-13.75h0c1.47-1.4,2.21-4.44,1.74-7.81-.63-4.41-3.11-7.7-5.55-7.35a2.89,2.89,0,0,0-1.75,1,13.63,13.63,0,0,0-.09-3.17c-.63-4.41-3.11-7.7-5.55-7.35s-3.91,4.2-3.28,8.6a13.33,13.33,0,0,0,.74,2.91,2.86,2.86,0,0,0-1.72-.34c-2.44.35-3.91,4.2-3.28,8.61.47,3.37,2,6.08,3.84,7h0c4.61,3.24,5.8,8.51,6.44,12.45s.58,7.13-.37,7.26c-.18,0-.12.12.09.26a136,136,0,0,0-14.31,3.55,22,22,0,0,0-4.21,1.44l-.09,0h0c-12.18,5.65-19.53,22.21-16.94,40.41s14.26,32.07,27.53,34.09v0l.4,0a22,22,0,0,0,3.72.17c16,.42,38.1-3.13,48.87-7.28.28-.11.54-.23.79-.35,12.67-5.27,20.4-22.17,17.75-40.78C121.67,106.19,109.24,92,95.39,90.78Z" fill="#343736"/><ellipse cx="100.61" cy="128.42" rx="26.56" ry="35.58" transform="translate(-17.07 15.43) rotate(-8.09)" fill="#fff"/><path d="M82.48,140.79a34.89,34.89,0,0,1-.73-4.77c-1.16-14.41,6.61-26.8,17.36-27.67s20.41,10.11,21.58,24.52a35.39,35.39,0,0,1,.06,4.82,37,37,0,0,0,1.09-12.49C120.56,109.49,110,97.53,98.31,98.48s-20.19,14.45-18.92,30.16A36.68,36.68,0,0,0,82.48,140.79Z" fill="#343736"/><path d="M92.82,138.65a16.7,16.7,0,0,1-.37-2.4c-.59-7.27,3.33-13.51,8.75-14s10.29,5.09,10.88,12.36a18,18,0,0,1,0,2.43,18.55,18.55,0,0,0,.55-6.3c-.64-7.91-6-13.95-11.86-13.47s-10.18,7.29-9.54,15.21A18.37,18.37,0,0,0,92.82,138.65Z" fill="#343736"/><path d="M213.19,287.51l7.8,3.17s-1.88-7.84,6-6.61,4.88,10.77,4.88,10.77L261.75,184.2l-60.23,84.58Z" fill="#343736"/><path d="M226.57,166.73s9.53,1.71,13.41-9.3,10.49-28.38,10.49-28.38L240,168.75s1.92-5.66,6.83-6,5.54-4.08,6.49-11.32,2.51-16.63,2.51-16.63,3.46-.89,2.2,4.57-7.23,22.44-5.66,23.7,6.54,3.62,9.4-3.8,6.06-9.28,6.06-9.28l-9.17,22Z" fill="#343736"/><path d="M157.63,237.3h-10c1.66,6.09,4.94,10.77,10.37,12.79a7.05,7.05,0,0,0-1.27,1.6c-5.33-2.19-8.56-6.7-10.45-12.84a17.45,17.45,0,0,1-10.52,12.87,6.62,6.62,0,0,0-1.22-1.45c6.72-2.73,9.24-7.83,10.21-13H135v-1.76h10.11a64,64,0,0,0,.33-7.46l2.4.12c0,.23-.23.36-.56.44a62.49,62.49,0,0,1-.36,6.9h10.75Z" fill="#fff" stroke="#fff" stroke-miterlimit="10" stroke-width="0.56"/><path d="M164.87,247.08a10.62,10.62,0,0,1-3.18,4.71l-1.51-.76a9.4,9.4,0,0,0,3.09-4.36Zm18.37-2.75v1.5h-23v-1.5h10.55V242h-8.33v-1.43h8.33v-2h-7.72V229h17.42v9.58h-8v2h8.79V242h-8.79v2.34Zm-18.5-14v2.7h6.07v-2.7Zm0,6.78h6.07v-2.76h-6.07Zm3.47,14.42a28.1,28.1,0,0,0-.48-4.23l1.55-.13a20.68,20.68,0,0,1,.59,4.13Zm10.6-18.5v-2.7h-6.3v2.7Zm0,4.08v-2.76h-6.3v2.76Zm-4.38,14.39a25.7,25.7,0,0,0-1.43-4.15l1.6-.33a26.16,26.16,0,0,1,1.48,4.1Zm7.26.18a29.14,29.14,0,0,0-3.39-4.43l1.55-.59a24.94,24.94,0,0,1,3.49,4.36Z" fill="#fff" stroke="#fff" stroke-miterlimit="10" stroke-width="0.56"/><path d="M207.85,239.9h-9.37c1.68,5.27,5,8.89,10.67,10.26a9.48,9.48,0,0,0-1.17,1.61c-5.37-1.53-8.69-4.92-10.62-10-1,3.82-3.8,7.51-10.91,10a5.16,5.16,0,0,0-1-1.48c7.54-2.65,9.83-6.55,10.5-10.39h-9.25v-1.76h9.42c0-.54,0-1.07,0-1.58v-4.71H185.87v-1.76h22.67v1.76h-10.6v4.71c0,.51,0,1-.05,1.58h10Z" fill="#fff" stroke="#fff" stroke-miterlimit="10" stroke-width="0.56"/><path d="M82,200a21.7,21.7,0,0,1,.76-5.94,14.08,14.08,0,0,1,2.18-4.63,10,10,0,0,1,3.51-3,10.45,10.45,0,0,1,4.76-1,8.87,8.87,0,0,1,3.9.82,9.13,9.13,0,0,1,3,2.3V173.89h7.66v40.59h-6.9l-.37-3a9.59,9.59,0,0,1-3.14,2.63,8.91,8.91,0,0,1-4.2.94,9.84,9.84,0,0,1-4.72-1.1,10.24,10.24,0,0,1-3.5-3,14.15,14.15,0,0,1-2.18-4.59,20.76,20.76,0,0,1-.76-5.77Zm7.64.56a17.54,17.54,0,0,0,.29,3.25,8.69,8.69,0,0,0,.94,2.63,5,5,0,0,0,1.69,1.77,4.78,4.78,0,0,0,2.55.65,5.55,5.55,0,0,0,3.08-.8,5.33,5.33,0,0,0,1.92-2.19V194.55a5.23,5.23,0,0,0-1.92-2.2,5.54,5.54,0,0,0-3-.78,4.77,4.77,0,0,0-2.57.65,4.85,4.85,0,0,0-1.7,1.78,8.85,8.85,0,0,0-.95,2.67,16.37,16.37,0,0,0-.31,3.3Z" fill="#8396ad"/><path d="M129.69,214.48a8.24,8.24,0,0,1-.77-2.56,10.12,10.12,0,0,1-2.92,2.19,9.32,9.32,0,0,1-4.29.9,11.47,11.47,0,0,1-3.85-.63,9.75,9.75,0,0,1-3.09-1.77,8,8,0,0,1-2.79-6.16,9.21,9.21,0,0,1,.83-4,7.79,7.79,0,0,1,2.5-3,12,12,0,0,1,4.14-1.85,22.82,22.82,0,0,1,5.74-.64h3.41v-1.64a4.76,4.76,0,0,0-1-3.17,4,4,0,0,0-3.22-1.19,4.53,4.53,0,0,0-3,.93,3.14,3.14,0,0,0-1.1,2.54h-7.64a7.6,7.6,0,0,1,.86-3.52,8.91,8.91,0,0,1,2.45-2.91,12.24,12.24,0,0,1,3.83-2,16.41,16.41,0,0,1,5-.72,16,16,0,0,1,4.6.63,10.55,10.55,0,0,1,3.65,1.89,8.62,8.62,0,0,1,2.39,3.15,10.56,10.56,0,0,1,.86,4.4v12.1c0,.81,0,1.54.08,2.18s.12,1.23.21,1.75a9.58,9.58,0,0,0,.34,1.4,8.76,8.76,0,0,0,.5,1.17v.45Zm-6.32-5.31a6.5,6.5,0,0,0,1.81-.24,6.29,6.29,0,0,0,1.49-.62,5.14,5.14,0,0,0,1.15-.88,4.74,4.74,0,0,0,.78-1v-4.92h-3.14a9.23,9.23,0,0,0-2.62.33,5.1,5.1,0,0,0-1.82.92,3.71,3.71,0,0,0-1.06,1.41,4.37,4.37,0,0,0-.34,1.75,3.08,3.08,0,0,0,1,2.36A3.94,3.94,0,0,0,123.37,209.17Z" fill="#8396ad"/><path d="M141.28,178.49a3.75,3.75,0,0,1,1.15-2.83,4.31,4.31,0,0,1,3.13-1.11,5,5,0,0,1,1.77.29,3.82,3.82,0,0,1,1.35.82,3.6,3.6,0,0,1,.85,1.25,3.94,3.94,0,0,1,.31,1.58,4,4,0,0,1-.31,1.6,3.6,3.6,0,0,1-.85,1.25,3.82,3.82,0,0,1-1.35.82,5.55,5.55,0,0,1-3.54,0,3.82,3.82,0,0,1-1.35-.82,3.63,3.63,0,0,1-.86-1.25A4.18,4.18,0,0,1,141.28,178.49Zm8.11,36h-7.66V185.89h7.66Z" fill="#8396ad"/><path d="M165.4,203l-2.75,2.75v8.72H155V173.89h7.64v22.49l1.48-1.9,7.32-8.59h9.17l-10.33,11.92,11.23,16.67h-8.77Z" fill="#8396ad"/><path d="M180.75,199.92a18,18,0,0,1,.9-5.79,13.14,13.14,0,0,1,2.62-4.61,12,12,0,0,1,4.24-3.05,14.14,14.14,0,0,1,5.75-1.11,14.37,14.37,0,0,1,5.79,1.11,12,12,0,0,1,4.26,3.05,13,13,0,0,1,2.63,4.61,18,18,0,0,1,.9,5.79v.55a18,18,0,0,1-.9,5.81,13.14,13.14,0,0,1-2.63,4.6,12,12,0,0,1-4.24,3,14.09,14.09,0,0,1-5.76,1.1,14.26,14.26,0,0,1-5.78-1.1,12,12,0,0,1-4.25-3,13.3,13.3,0,0,1-2.63-4.6,18,18,0,0,1-.9-5.81Zm7.64.55a16.22,16.22,0,0,0,.32,3.28,8.24,8.24,0,0,0,1,2.66,5.28,5.28,0,0,0,1.83,1.78,5.37,5.37,0,0,0,2.76.66,5.26,5.26,0,0,0,2.71-.66,5.4,5.4,0,0,0,1.84-1.78,8,8,0,0,0,1-2.66,16.24,16.24,0,0,0,.31-3.28v-.55a15.75,15.75,0,0,0-.31-3.21,8.35,8.35,0,0,0-1-2.67,5.46,5.46,0,0,0-1.85-1.82,5.31,5.31,0,0,0-2.75-.68,5.17,5.17,0,0,0-2.71.68,5.31,5.31,0,0,0-1.83,1.82,8.57,8.57,0,0,0-1,2.67,15.74,15.74,0,0,0-.32,3.21Z" fill="#8396ad"/><path d="M220.36,201.24l-3.07,3.2v10H212.4V173.89h4.89v24.55l2.62-3.14,8.91-9.41h5.94l-11.12,11.94,12.42,16.65h-5.74Z" fill="#fff"/><path d="M256.65,211.65Q253.8,215,248.27,215c-3,0-5.37-.88-7-2.66s-2.4-4.39-2.42-7.86v-18.6h4.89v18.47q0,6.49,5.29,6.5c3.73,0,6.22-1.39,7.45-4.17v-20.8h4.89v28.59h-4.65Z" fill="#fff"/></g></g></svg>