<svg version="1.1" id="Calque_1" xmlns="http://www.w3.org/2000/svg" xmlns:xlink="http://www.w3.org/1999/xlink" x="0px"
     y="0px" enable-background="new 0 0 1024 768" xml:space="preserve" viewBox="430.75 316.27 156.93 136.23">
    <!-- <rect fill="white" width="100em" height="100em" rx="15"/> -->
    <g>
	<!-- bag reflect bottom -->
      <path fill="transparent" stroke="#fff" stroke-width="2" d="M439.48,404.84c2.68,1.39-0.5-5.91-0.73-6.96C435.86,399.37,439.01,402.68,439.48,404.84z"/>
      <!--  mouth -->
      <path fill="transparent" stroke="#fff" stroke-width="2"
            d="M539.7,393.45c0,0,7.99-0.56,5.82-5.81c-1.87,0-11.66,1.44-11.66,1.44   C535.15,394.19,539.7,393.45,539.7,393.45z"/>
      <!-- beard reflect bottom -->
      <path fill="transparent" stroke="#fff" stroke-width="2"
            d="M503.91,401.64c-0.78-1.61-1.63-3.47-3.43-4.14C498.23,400.23,503.37,405.07,503.91,401.64z"/>
      <!-- bag border -->
      <path fill="#fff" stroke="#fff" stroke-width="2"
            d="M434.86,419.38c1.09,4.03,4.72,6.45,7.42,9.38c2.61,2.8,6.59,2.82,10.06,3.71   c6.26,0.54,15.86,2.78,21.39,0.07c-0.35-0.91-1.75-0.62-2.56-0.88c-3.96-1.58-8.07-2.24-12.37-2.68c-4.25-0.98-9.18-1.31-12.6-4.21   c-2.56-2.68-6.09-4.72-7.31-8.39c-3.87-8.28-4.56-16.1-4.05-25.12c0.8-14.43,6.16-31.95,19.83-38.97c3-1.65,6.51-2.63,9.25-4.58   c-6.93-1.03-11.82,4.18-16.9,7.91c-10.6,8.46-15.96,22.16-16.18,35.5c-0.09,4.04-0.07,8.08-0.04,12.12   C430.76,408.88,433.37,414.05,434.86,419.38z"/>
      <!-- hammer ext. -->
      <path fill="transparent" stroke="#fff" stroke-width="2"
            d="M489.11,438.19c3.36-0.54,8.24-3.07,3.17-5.74c-3.58-1.93,4.27-2.6-0.08-5.16   c-0.57-0.44-0.95-0.95-0.9-1.72c-1.66-0.59-4.7,1.5-5.56,0.09c3.35-1.68,8.32-1.01,10.2-4.86c1.96-5.02,2.52-10.88,0.7-16   c-2.8-4.88-6.83-11.63-13.42-10.48c-6.07,1.32-18.81,3.87-22.72,8.43c-4.36,9.66-1.36,22.28,8.31,27.16   c2.55,0.93,6.6-1.37,7.14,2.69C485.05,436.69,469.49,442.47,489.11,438.19z M474.52,408.92c-0.11-11.41,10.78-15.21,17.44-5.79   c2.83,4.89,4.45,13.19-0.74,17.02C482.66,425.82,473.91,418.31,474.52,408.92z"/>
      <!-- hammer spiral -->
      <path fill="transparent" stroke="#fff" stroke-width="1"
            d="M489.2,414.93c2.24-3.86,2.17-10.34-1.12-13.53c-5.97-1.99-9.36,4.29-7.83,9.1   c0.48,3.34,6.39,3.4,7.17,0.27c1.47-4.46-4.79-5.23-3.45-0.77c0.24-1.29,0.57-2.65,2.04-1.75c1.82,2.74-1.67,4.52-3.37,1.97   c-3.19-4.5,1.81-11.24,5.46-5.66c4.16,9.24-4.87,19.17-9.42,6.03c-2.81,1.18,0.41,4.38,1.16,6.05   C482.18,420.45,487.46,418.15,489.2,414.93z"/>
      <!-- bag reflect top -->
      <path fill="transparent" stroke="#fff" stroke-width="2"
            d="M439.15,386.11c-1.84,1.33-1.18,2.92-0.74,4.6C439.86,390.22,440.01,387.24,439.15,386.11z"/>
      <!-- pant -->
      <path fill="#fff"
            d="M559.28,441.87c3.45-0.49,8.58,1.4,11.14-1.24c1.01-4.03-0.54-8.19-2.16-11.86   c-9.25,2.83-18.42,5.15-28.19,4.54c-1.36,0.18-2.68,0.06-3.93-0.5c-1.98,1.57-3.16,1.58-5.3,0.16c-8.49,0.86-17.08,2.53-25.54,0.7   c-3.56-0.94-7.85-0.73-11.05-2.27c-0.39-0.6-0.67-0.34-1.14,0.08c7.25,6.12-2.08,8.52-7.44,8.55c-1.26,2.5,0.84,4.97,0.85,7.55   c0.07,0.54,0.43,0.82,0.96,0.73c3.44-0.85,3.85,0.27,3.51-3.52c4.28,0.89,16.79-4.65,13.68,3.79c-4.82,1.43-10.57,0.66-15.28,2.6   l-3.72,1.3h21.88c0,0-0.11-0.78,0.39-1.66c0.6-1.05,0.88-2.25,0.92-3.46c0.04-1.39,0.74-1.7,0.81-2.77   c7.53,0.27,15.77-3.4,22.24-6.95c6.67,4.3-1.39,9.86,16.14,5.18c9.11-2.39,2.42,2.69,2.65,6.28l2.15,3.39h20.51l-11.85-3.95   c-2.7-0.46-5.37-1.01-7.83-2.29C554.68,442.49,555.29,441.44,559.28,441.87z M554.26,447.64c-0.49,0.05-0.65,0.07-0.8,0.08   c0.01-0.08,0.01-0.17,0.02-0.25C553.63,447.5,553.78,447.53,554.26,447.64z"/>
      <!-- beard reflect top -->
      <path fill="transparent" stroke="#fff" stroke-width="2"
            d="M497.74,395.26c-0.41-1.3,0.02-2.75-1.28-3.26c-0.18,0.69-0.31,1.09-0.57,1.68   C496.61,393.9,496.74,394.96,497.74,395.26z"/>
      <!-- eyebrow -->
      <path fill="#fff"
            d="M552.47,372.97c1.4-0.09,1.49-1.07,1.17-2.24c-0.63-1.57-3.83-0.66-5.26-2.16   c-3.39-2.56-5.65-0.72-7.87,2.17c-2.26,3.91-5.2-3.31-8.3,0.46c-0.95,0.97-1.94,1.9-2.93,2.82c-12.59-5.56-9.47-5.27-18.04,4.66   c3.05-1.07,5.19-4.81,7.87-6.9c4.43-0.01,9.07,8.51,12.46,2.79c4.03-7.37,4.42,4.36,9.59-0.8   C546.65,363.59,545.69,373.2,552.47,372.97z"/>
      <!-- middle spiral patch -->
      <path fill="transparent" stroke="#fff" stroke-width="1"
            d="M529.95,350.73c0.46,1.62-0.23,3.76,2.1,3.62c2.54-0.22,5.07-2.2,3.9-4.99   C534.6,347.09,530.34,348.29,529.95,350.73z M532.86,352.02c-1.01-0.19-0.66-1.79,0.29-1.68   C534.42,350.42,533.78,352.22,532.86,352.02z"/>
      <!-- nose -->
      <path fill="transparent" stroke="#fff" stroke-width="2"
            d="M544.15,381.18c-8.23,1.13-0.4,3.83-12.38,0.14c-0.85,2.9,3.18,2.57,4.63,4.17   C538.74,388.21,545.91,381.63,544.15,381.18z"/>
      <!-- body & beret -->
      <path fill="transparent" stroke="#fff" stroke-width="2"
            d="M468.87,357.18c-1.88,10.92-2.18,27.28,9.67,32.46c8.99,3.42,9.99-3.34,14.09,6.09   c3.01,5.13,6.81,9.98,7.11,16.17c-0.12,6.05-1.47,11.28-7.56,13.55c1.2,1.43,3.08,2.13,3.32,4.07c0.92,0.06,1.78,0.09,2.62,0.19   c7.13,1.08,14.24,1.51,21.41,0.72c3.37-0.66,7.83,1.11,10.55-1.2c0.77-0.88,1.91-2.17,3.11-1.22c6.47,2.41-0.17,3.81,10.49,1.71   c6.29-1.45,12.74-1.61,19.1-2.47c1.41-0.42,3.93-0.11,4.65-1.46c-0.6-4.07-3.32-6.96-4.8-10.62c-0.24-1.94-2.24-4.21-0.95-5.73   c1.18-2.03,1.95-4.85,4.72-5.07c-4.66,3.56-5.4,7.26-1.82,11.83c0.43-1.98,0.89-3.94,2.35-5.55c-0.12,2.01-1.38,3.73-1.49,5.8   c-0.5,1.44,0.94,2.57,1.62,3.65c1.17,0.28,1.99-0.55,3.05-0.8c0.08,1.36-0.14,2.72,0.61,4.07c1.02-2.55,1.12-5.32,0.8-8.04   c0.91-5.89,6.3-2.92,8.21,0.32c-4.17,0.59-6.98,5.32-5.49,9.23c-1.46,2.39-2.57,5.85-0.42,8.56c1.77,2.73,5.55,3.77,7.64,0.81   c1.21-1.57-1.38-4.69,1.28-5.39c10.79-4.72,1.26-12.29-4.26-16.62c-1.04-0.48-0.98-1.11-1.02-1.97c-0.62-1.47-1.28-2.93-2.52-4.01   c-0.44-0.3-0.69-0.76-0.88-1.24c0.76-0.03,1.53-0.15,2.3-0.43c-1.19-1.66-3.18-1.67-5.16-1.74c-0.49-2.59-3.7-4.3-5.98-2.54   c-0.92-0.43-2.03-1.69-3.03-1.21c0.25,0.73,0.54,1.14,0.8,1.4c-1.39-0.44-2.8-0.84-4.19-1.25c-1.54-0.87-4.43-0.46-5.09-2.41   c0-0.08,0-0.15,0-0.22l-2.01-0.1c-4.37,0.12-6.88-2.58-11.67-0.21c-4.9,7.47,12.64,5.94,15.67,7.13c0.61,0.12,1.23,0.22,1.86,0.3   c-8.03,8.08-17.91,13.93-30.01,13.63c0.17,3.68-3.44,7.66-7.15,7.55c-2.23-0.49-3.15-5.46-3.14-7.51   c-4.97,3.61-10.21,3.62-10.44-3.74c-1.53,0.7-3.3,1.8-4.82,0.53c-1.06-0.92-1.85-2.61-0.67-3.79c2.08,7.69,5.59-1.27,6.86,2.25   c0.17,1.79-0.27,4.7,1.79,5.46c3.04,2.58,6.68-3.88,8.22-0.84c-0.1,2.32,1,4.56,1.98,6.56c2.39,1.18,9.25-5.47,5.75-6.69   c-13.59-0.86-27.2-9.59-30.07-23.49l0.04,0.04c-1.52-4.43-1.53-5.9,2.77-8.04c7.02-4.49,11.48-11.79,18.24-16.65   c7.45-8.23,5.33,1.92,21.57-3.14c6.48-1.76,8.31-9.8,7.39-15.69c3.23-2.36,8.48-3.6,12.3-2.46c-2.14,1.29-4.02-0.04-6.24,1.14   c1.54,0.77,2.87,0.73,4.22,1.72c-2.18,0.49-4.35-1.55-6.33-0.33c11.75,8.97,16.89,20.76,15.59,35.42c3.22-5.06,1.1-17.41-1.34-23.3   c3.32-5.84,3.95-12.41,1.25-18.64c-6.82-17.2-28.68-26.9-46.25-27.43C496.38,316.33,472.92,334.63,468.87,357.18z M473.06,368.99   c-0.63-0.57-0.62-0.57,0-1.38C473.06,368.12,473.06,368.52,473.06,368.99z M474.51,376.39c1.23,2,2.29,3.42,3.67,5.21   C475.75,380.36,474.82,379.07,474.51,376.39z M558.26,403.8c0.93,0.1,1.88,0.16,2.83,0.2c-1.27,1.88-2.13,3.93-3.07,0.27   C558.08,404.11,558.17,403.95,558.26,403.8z M542.94,416.75c1.28-1.17,2.91,3.5,6.4,1.56c2.9-1.43,2.44-4.94,1.92-7.6   c0.93-3.53,3.26,5.16,5.23-2.55c0.26-0.67,0.25-0.68,0.95-1.35c0.87,1.4-0.37,2.98-0.82,4.33c-0.75,1.79-2.16,1.76-3.83,1.21   c1.44,5.61-4.44,10.18-9.25,6.05c-1.6,5.32-8.26,7.15-9.07,0.45C536.4,425.09,542.68,422.11,542.94,416.75z M520.64,350.56   c0.68-7.9,10.57-11.85,17.46-9.83c7.83,3.65,9.44,22.18-0.89,23.08c-1.12-2.42-1.94-5.11-1.78-7.72c1.49-0.86,3.14-0.32,4.7-0.8   c2.62-1.31-0.6-6.21-0.75-8.56c-1.31-0.57-4.07-0.05-5.64,0.24c-0.14-0.79-0.24-1.38-0.33-1.95c-1.36-0.27-2.82,0.74-2.29,2.17   c-2.37,0.35-4.57,0.51-6.51,2.07c0.37,2.01,0.91,8.97,3.52,8.26c1.62-0.24,3.25-0.52,4.86-0.8c0.44,1.68,0.32,5.08-0.27,7.62   C525.28,365.85,518,357.83,520.64,350.56z M527.44,356.2c-0.7-2.36-1.35-4.57-2.03-6.86c3.93-2.01,8.52-1.87,12.87-1.96   c0.2,2.02,1.06,4.82,0.42,6.51C534.81,354.32,531.36,355.58,527.44,356.2z M493.59,378.98c0.19-0.06,0.55-0.08,0.6,0.01   c0.51,1.57-1.7,2.14-3.17,2.2C492.05,380.31,492.57,379.5,493.59,378.98z"/>
      <!-- left mustache -->
      <path fill="#fff"
            d="M521.97,397.65c4.32,0.61,6.97-4.64,9.39-7.47C533.31,380.87,522.96,395.67,521.97,397.65z"/>
      <!-- right mustache -->
      <path fill="#fff"
            d="M554.73,392.93l-2.27-3.98c0.05,0.07,0.1,0.14,0.15,0.21c-3.63-5.36-8.97-6.62-2.98,0.64L554.73,392.93z"/>
      <!-- right eye -->
      <path fill="transparent" stroke="#fff" stroke-width="2"
            d="M550.94,374.96c-1.85-0.22-4.24,1.91-3.25,3.86c0.68,1.37,2.33,0.94,3.52,0.64   C553.53,378.94,554.13,374.53,550.94,374.96z"/>
      <!-- left eye -->
      <path fill="transparent" stroke="#fff" stroke-width="2"
            d="M519.65,378.39c0-0.03-0.01-0.05-0.01-0.08c-1.84,0.11-3.63,1.48-4.11,3.28c-0.59,3.15,4.39,2.82,5.68,1.05   C521.98,381.2,521.93,378.02,519.65,378.39z"/>
</g>
</svg>